<svg xmlns="http://www.w3.org/2000/svg" width="604.724" height="173.858" viewBox="0 0 160 46" xmlns:v="https://vecta.io/nano"><g fill="#e6e6e6"><path d="M-350.001 67.619v10.633l16.921 9.709V57.54z"/><path d="M-345.378 87.314v9.894l23.301-13.315v-9.894z"/><path d="M-341.266 63.107v9.894l19.068 10.962v-9.894z"/></g><path d="M18.428 14.664v9.166l2.311 1.28 7.952-4.763z" fill="#6bc375"/><path d="M18.414 3.918L1.493 13.997v10.633l16.921 9.709 4.021-8.695-12.11-6.605 8.089-4.303z" fill="#002892"/><path d="M6.001 33.695v9.894l22.718-12.896-.017-10.354z" fill="#3d947b"/><path d="M20.643 2.41v10.461l8.631-5.427zm3.848 10.118l7.098 4.098-.301-7.982z" fill="#94f170"/><path d="M33.928 28.758V15.067h3.082v11.043h6.065v2.647zm10.329 0V15.067h9.246v2.588h-6.164v2.687h5.472v2.529h-5.472v3.299h6.618v2.588zm9.795 0q1.027-2.944 1.916-5.334.909-2.39 1.758-4.425.869-2.035 1.778-3.931h2.944q.672 1.422 1.324 2.924.652 1.501 1.304 3.161.652 1.64 1.343 3.516.711 1.877 1.482 4.089h-3.299q-.217-.711-.494-1.462-.257-.751-.514-1.501H58.26q-.257.751-.533 1.501-.257.751-.474 1.462zm4.919-5.413h3.892q-.316-.889-.612-1.699-.296-.81-.573-1.482-.257-.672-.454-1.185-.198-.514-.316-.81-.099.296-.296.81-.178.514-.454 1.185-.257.672-.573 1.482-.296.81-.612 1.699zm14.023 5.591q-.83 0-1.936-.079-1.106-.059-2.173-.277V15.245q1.067-.198 2.213-.257 1.166-.079 1.995-.079 2.351 0 4.089.711 1.758.711 2.726 2.252.968 1.541.968 4.03 0 2.371-.968 3.931-.948 1.561-2.726 2.331-1.758.77-4.188.77zm.158-2.647q2.311 0 3.418-1.166 1.126-1.166 1.126-3.22 0-2.153-1.067-3.26-1.067-1.106-3.378-1.106-.316 0-.652.02-.336 0-.632.04v8.653q.217.02.494.04.296 0 .691 0zm9.499 2.469V15.067h9.246v2.588h-6.164v2.687h5.472v2.529h-5.472v3.299h6.618v2.588zm11.178 0V15.265q1.008-.198 2.074-.277 1.087-.079 1.936-.079 3.082 0 4.722 1.106 1.64 1.087 1.64 3.398 0 1.442-.672 2.351-.652.889-1.897 1.403.415.514.869 1.166.454.652.889 1.403.454.731.869 1.501.415.77.77 1.521h-3.457q-.494-.909-1.027-1.818-.533-.909-1.067-1.738-.514-.83-1.047-1.442 0 0 0 0 0 0 0 0h-1.521v4.998zm3.082-7.448h.869q1.166 0 1.877-.178.711-.198 1.027-.612.336-.435.336-1.126 0-.672-.336-1.067-.336-.415-1.008-.593-.672-.198-1.659-.198-.336 0-.612.02-.257.02-.494.04zm16.983 7.724q-1.818 0-2.944-.356-1.106-.375-1.64-.691l.869-2.45q.612.336 1.501.612.909.257 2.213.257 1.304 0 1.758-.395.454-.415.454-1.027 0-.454-.277-.79-.277-.336-.889-.632-.612-.316-1.64-.652-.889-.316-1.758-.77-.869-.474-1.442-1.245-.553-.77-.553-2.035 0-1.264.612-2.173.632-.929 1.758-1.422 1.126-.514 2.667-.514 1.383 0 2.39.296 1.008.296 1.659.652l-.889 2.43q-.573-.296-1.284-.514-.691-.237-1.679-.237-1.106 0-1.6.316-.474.296-.474.929 0 .474.316.79.316.316.849.553.533.237 1.205.474 1.422.514 2.351 1.067.929.553 1.383 1.363.474.81.474 2.134 0 1.264-.593 2.173-.593.909-1.798 1.383-1.185.474-3.003.474zm6.97-.277V15.067h3.082v5.176q.593-.632 1.205-1.284.612-.672 1.205-1.343.612-.672 1.166-1.304.573-.652 1.106-1.245h3.655q-.711.83-1.422 1.64-.691.79-1.403 1.58-.711.77-1.462 1.541-.731.77-1.501 1.541.83.672 1.62 1.501.79.81 1.541 1.738.77.929 1.501 1.976.731 1.047 1.442 2.173h-3.655q-.415-.672-.988-1.442-.553-.77-1.225-1.561-.652-.81-1.363-1.521-.711-.711-1.422-1.264v5.788zm12.719 0V15.067h3.082v13.691zm5.449 0V15.067h3.082v11.043h6.065v2.647zm10.329 0V15.067h3.082v11.043h6.065v2.647z" fill="#002892"/><path d="M273.161 12.572v9.166l2.311 1.28 7.952-4.763z" fill="#e6e6e6"/><path d="M273.148 1.826l-16.921 10.079v10.633l16.921 9.709 4.021-8.695-12.11-6.605 8.089-4.303z" fill="#f9f9f9"/><path d="M260.735 31.603v9.894l22.718-12.896-.017-10.354z" fill="#ccc"/><path d="M275.377.318v10.461l8.631-5.427z" fill="#ececec"/><path d="M279.224 10.436l7.098 4.098-.301-7.982zm9.437 16.23V12.975h3.082v11.043h6.065v2.647zm10.329 0V12.975h9.246v2.588h-6.164v2.687h5.472v2.529h-5.472v3.299h6.618v2.588zm9.795 0q1.027-2.944 1.916-5.334.909-2.39 1.758-4.425.869-2.035 1.778-3.931h2.944q.672 1.422 1.324 2.924.652 1.501 1.304 3.161.652 1.64 1.343 3.516.711 1.877 1.482 4.089h-3.299q-.217-.711-.494-1.462-.257-.751-.514-1.501h-5.334q-.257.751-.533 1.501-.257.751-.474 1.462zm4.919-5.413h3.892q-.316-.889-.612-1.699-.296-.81-.573-1.482-.257-.672-.454-1.185-.198-.514-.316-.81-.099.296-.296.81-.178.514-.454 1.185-.257.672-.573 1.482-.296.81-.612 1.699zm14.023 5.591q-.83 0-1.936-.079-1.106-.059-2.173-.277V13.153q1.067-.198 2.213-.257 1.166-.079 1.995-.079 2.351 0 4.089.711 1.758.711 2.726 2.252.968 1.541.968 4.03 0 2.371-.968 3.931-.948 1.561-2.726 2.331-1.758.77-4.188.77zm.158-2.647q2.311 0 3.418-1.166 1.126-1.166 1.126-3.22 0-2.153-1.067-3.26-1.067-1.106-3.378-1.106-.316 0-.652.02-.336 0-.632.04v8.653q.217.02.494.04.296 0 .691 0zm9.499 2.469V12.975h9.246v2.588h-6.164v2.687h5.472v2.529h-5.472v3.299h6.618v2.588zm11.178 0V13.173q1.008-.198 2.074-.277 1.087-.079 1.936-.079 3.082 0 4.722 1.106 1.64 1.087 1.64 3.398 0 1.442-.672 2.351-.652.889-1.897 1.403.415.514.869 1.166.454.652.889 1.403.454.731.869 1.501.415.77.77 1.521h-3.457q-.494-.909-1.027-1.818-.533-.909-1.067-1.738-.514-.83-1.047-1.442 0 0 0 0 0 0 0 0h-1.521v4.998zm3.082-7.448h.869q1.166 0 1.877-.178.711-.198 1.027-.612.336-.435.336-1.126 0-.672-.336-1.067-.336-.415-1.008-.593-.672-.198-1.659-.198-.336 0-.612.02-.257.02-.494.04zm16.983 7.724q-1.818 0-2.944-.356-1.106-.375-1.64-.691l.869-2.45q.612.336 1.501.612.909.257 2.213.257 1.304 0 1.758-.395.454-.415.454-1.027 0-.454-.277-.79-.277-.336-.889-.632-.612-.316-1.64-.652-.889-.316-1.758-.77-.869-.474-1.442-1.245-.553-.77-.553-2.035 0-1.264.612-2.173.632-.929 1.758-1.422 1.126-.514 2.667-.514 1.383 0 2.39.296 1.008.296 1.659.652l-.889 2.43q-.573-.296-1.284-.514-.691-.237-1.679-.237-1.106 0-1.6.316-.474.296-.474.929 0 .474.316.79.316.316.849.553.533.237 1.205.474 1.422.514 2.351 1.067.929.553 1.383 1.363.474.81.474 2.134 0 1.264-.593 2.173-.593.909-1.798 1.383-1.185.474-3.003.474zm6.97-.277v-13.69h3.082v5.176q.593-.632 1.205-1.284.612-.672 1.205-1.343.612-.672 1.166-1.304.573-.652 1.106-1.245h3.655q-.711.83-1.422 1.64-.691.79-1.403 1.58-.711.77-1.462 1.541-.731.77-1.501 1.541.83.672 1.62 1.501.79.81 1.541 1.738.77.929 1.501 1.976.731 1.047 1.442 2.173h-3.655q-.415-.672-.988-1.442-.553-.77-1.225-1.561-.652-.81-1.363-1.521-.711-.711-1.422-1.264v5.788zm12.719 0v-13.69h3.082v13.691zm5.449 0v-13.69h3.082v11.043h6.065v2.647zm10.329 0v-13.69h3.082v11.043h6.065v2.647z" fill="#f9f9f9"/></svg>